# xmcd
#
# Track frame offsets: 
#        183
#        19303
#        28988
#        41980
#        52033
#        60035
#        73380
#        91168
#        102258
#        117258
#        128613
#        140508
#        164020
#        178063
#        188363
#        202258
#        215565
#        229680
#        241553
#        253233
#        263403
#        276933
#        284833
#
# Disc length: 3972 seconds
#
# Revision: 2
# Processed by: cddbd v1.5.2PL0 Copyright (c) Steve Scherf et al.
# Submitted via: ExactAudioCopy v0.95a5
#
DISCID=600f8217
DTITLE=Buddy Guy - First Time I Met The Blues
DYEAR=1991
DGENRE=Blues
TTITLE0=First Time I Met The Blues
TTITLE1=Slop Around
TTITLE2=Let Me Love You Baby
TTITLE3=Got To Use Your Head
TTITLE4=I Dig Your Wig
TTITLE5=My Time After Awhile
TTITLE6=Stick Around
TTITLE7=No Lie
TTITLE8=Night Flight
TTITLE9=My Mother
TTITLE10=Ten Years Ago
TTITLE11=Don't Know Which Way To Go
TTITLE12=Gully Hully
TTITLE13=First Time I Met The Blues
TTITLE14=I Got A Strange Feeling
TTITLE15=This Is The End
TTITLE16=Broken Hearted Blues
TTITLE17=You Sure Can't Do
TTITLE18=Try To Quit You Baby
TTITLE19=I Got My Eyes On You
TTITLE20=Sit And Cry (The Blues)
TTITLE21=Untitled Instrumental
TTITLE22=Drinking Muddy Water
EXTD=
EXTT0=
EXTT1=
EXTT2=
EXTT3=
EXTT4=
EXTT5=
EXTT6=
EXTT7=
EXTT8=
EXTT9=
EXTT10=
EXTT11=
EXTT12=
EXTT13=
EXTT14=
EXTT15=
EXTT16=
EXTT17=
EXTT18=
EXTT19=
EXTT20=
EXTT21=
EXTT22=
PLAYORDER=
